<svg width="280" height="220" viewBox="0 0 280 220" fill="none" xmlns="http://www.w3.org/2000/svg">
<g clip-path="url(#clip0_30_837)">
<path d="M253.691 0.143799H0.108398V162.549H253.691V0.143799Z" fill="#E6E6E6"/>
<path d="M246.441 20.5134H7.35938V152.941H246.441V20.5134Z" fill="white"/>
<path d="M253.583 0H0V10.7731H253.583V0Z" fill="#6B8E23"/>
<path d="M8.00575 7.50454C9.10851 7.50454 10.0025 6.61058 10.0025 5.50782C10.0025 4.40507 9.10851 3.51111 8.00575 3.51111C6.90299 3.51111 6.00903 4.40507 6.00903 5.50782C6.00903 6.61058 6.90299 7.50454 8.00575 7.50454Z" fill="white"/>
<path d="M15.5849 7.50454C16.6876 7.50454 17.5816 6.61058 17.5816 5.50782C17.5816 4.40507 16.6876 3.51111 15.5849 3.51111C14.4821 3.51111 13.5881 4.40507 13.5881 5.50782C13.5881 6.61058 14.4821 7.50454 15.5849 7.50454Z" fill="white"/>
<path d="M23.164 7.50454C24.2667 7.50454 25.1607 6.61058 25.1607 5.50782C25.1607 4.40507 24.2667 3.51111 23.164 3.51111C22.0612 3.51111 21.1672 4.40507 21.1672 5.50782C21.1672 6.61058 22.0612 7.50454 23.164 7.50454Z" fill="white"/>
<path d="M90.5158 34.2539H29.0833V139.201H90.5158V34.2539Z" fill="#E6E6E6"/>
<path d="M152.314 34.2539H101.12V63.1417H152.314V34.2539Z" fill="#6B8E23"/>
<path d="M152.314 71.1865H101.12V102.268H152.314V71.1865Z" fill="#E6E6E6"/>
<path d="M152.314 110.313H101.12V139.201H152.314V110.313Z" fill="#E6E6E6"/>
<path d="M224.717 34.2539H163.284V79.9893H224.717V34.2539Z" fill="#E6E6E6"/>
<path d="M224.717 93.4656H163.284V139.201H224.717V93.4656Z" fill="#E6E6E6"/>
<path d="M201.051 83.2747V73.4286C201.051 69.9293 202.441 66.5734 204.915 64.0991C207.39 61.6248 210.745 60.2347 214.245 60.2347C217.744 60.2347 221.1 61.6248 223.574 64.0991C226.048 66.5734 227.439 69.9293 227.439 73.4286V83.2747C227.438 83.7446 227.251 84.1951 226.919 84.5273C226.587 84.8596 226.136 85.0465 225.666 85.047H202.823C202.353 85.0465 201.903 84.8596 201.57 84.5273C201.238 84.1951 201.051 83.7446 201.051 83.2747Z" fill="#2F2E41"/>
<path d="M233.754 211.411L229.1 212.699L221.918 195.363L228.786 193.462L233.754 211.411Z" fill="#FFB8B8"/>
<path d="M225.409 212.289L234.383 209.805L235.947 215.456L221.322 219.504C221.117 218.761 221.059 217.986 221.154 217.222C221.248 216.458 221.492 215.72 221.871 215.05C222.251 214.38 222.758 213.791 223.365 213.318C223.972 212.844 224.667 212.494 225.409 212.289Z" fill="#2F2E41"/>
<path d="M185.238 214.991H180.409L178.112 196.366H185.238L185.238 214.991Z" fill="#FFB8B8"/>
<path d="M176.96 213.611H186.272V219.474H171.096C171.096 218.705 171.248 217.942 171.543 217.231C171.837 216.519 172.269 215.873 172.814 215.329C173.358 214.784 174.004 214.352 174.716 214.058C175.427 213.763 176.19 213.611 176.96 213.611Z" fill="#2F2E41"/>
<path d="M179.415 110.906C179.76 111.372 180.202 111.756 180.711 112.031C181.22 112.307 181.784 112.468 182.362 112.502C182.94 112.537 183.518 112.444 184.056 112.231C184.595 112.017 185.08 111.689 185.477 111.268L198.313 117.041L197.145 109.821L185.135 105.445C184.384 104.825 183.43 104.501 182.456 104.536C181.482 104.571 180.555 104.962 179.85 105.635C179.144 106.308 178.711 107.217 178.631 108.188C178.551 109.16 178.83 110.127 179.415 110.906Z" fill="#FFB8B8"/>
<path d="M206.084 154.323C202.051 154.323 197.877 153.722 194.367 151.936C192.505 151.006 190.854 149.702 189.518 148.105C188.183 146.508 187.191 144.652 186.605 142.655C184.777 136.865 187.082 131.178 189.312 125.678C190.693 122.27 191.998 119.05 192.336 115.877L192.455 114.751C192.982 109.691 193.437 105.321 195.959 103.682C197.266 102.832 199.023 102.784 201.331 103.533L223.01 110.576L222.213 151.729L222.081 151.773C221.968 151.811 214.326 154.323 206.084 154.323Z" fill="#2F2E41"/>
<path d="M200.952 90.7216C200.952 90.7216 211.586 87.5709 219.857 88.7524C219.857 88.7524 215.13 114.746 216.706 123.411C218.281 132.075 189.333 126.759 195.241 118.488L197.21 108.642C197.21 108.642 193.272 104.703 196.816 99.977L200.952 90.7216Z" fill="#6B8E23"/>
<path d="M195.722 153.543L182.616 151.086L187.191 115.873C187.499 114.89 194.587 92.5799 197.806 91.3728C200.144 90.5497 202.534 89.8856 204.961 89.3851L205.427 89.2919L202.799 93.2338L192.337 118.304L195.722 153.543Z" fill="#2F2E41"/>
<path d="M188.893 210.675L171.959 207.853L181.462 169.05L195.603 115.984L195.742 116.927C195.753 116.997 197.074 123.929 216.676 120.853L216.848 120.826L216.896 120.994L240.586 204.701L221.291 207.917L203.693 146.845L188.893 210.675Z" fill="#2F2E41"/>
<path d="M212.363 160.133L212.374 159.835C212.385 159.504 213.55 126.605 213.161 113.374C212.771 100.098 217.069 88.6004 217.112 88.4858L217.147 88.3935L217.242 88.3662C222.803 86.7775 227.628 91.5191 227.676 91.5672L227.744 91.6349L226.16 104.701L232.94 152.215L212.363 160.133Z" fill="#2F2E41"/>
<path d="M211.533 84.8179C216.876 84.8179 221.207 80.487 221.207 75.1446C221.207 69.8022 216.876 65.4713 211.533 65.4713C206.191 65.4713 201.86 69.8022 201.86 75.1446C201.86 80.487 206.191 84.8179 211.533 84.8179Z" fill="#FFB8B8"/>
<path d="M197.929 74.2164C197.933 71.4493 199.033 68.7964 200.99 66.8398C202.946 64.8832 205.599 63.7825 208.366 63.7794H210.336C213.103 63.7825 215.756 64.8832 217.712 66.8398C219.669 68.7964 220.769 71.4493 220.773 74.2164V74.4133H216.611L215.191 70.4387L214.908 74.4133H212.757L212.041 72.4079L211.897 74.4133H197.929V74.2164Z" fill="#2F2E41"/>
<path d="M210.581 86.1543C210.386 85.8897 210.269 85.5753 210.245 85.2474C210.22 84.9194 210.289 84.5911 210.443 84.3004C212.53 80.3312 215.451 72.997 211.573 68.4739L211.294 68.1489H222.553V85.0527L212.325 86.8573C212.222 86.8757 212.117 86.8849 212.012 86.885C211.733 86.885 211.457 86.8188 211.209 86.6917C210.96 86.5647 210.745 86.3805 210.581 86.1543Z" fill="#2F2E41"/>
<path d="M165.25 16.3629C157.372 9.71488 147.731 5.50014 137.501 4.23152C127.27 2.9629 116.892 4.69511 107.628 9.21735C98.3646 13.7396 90.615 20.8569 85.3226 29.7032C80.0301 38.5494 77.423 48.7433 77.8185 59.0443C78.2139 69.3453 81.5949 79.3092 87.55 87.7237C93.5051 96.1382 101.777 102.64 111.361 106.439C120.944 110.238 131.424 111.169 141.527 109.12C151.63 107.071 160.92 102.129 168.265 94.8969L233.493 149.936C234.486 150.775 235.771 151.186 237.066 151.077C238.361 150.969 239.56 150.35 240.399 149.358C241.238 148.365 241.649 147.08 241.54 145.785C241.432 144.49 240.813 143.291 239.821 142.452L239.814 142.446L174.585 87.4066C182.163 76.5313 185.406 63.2183 183.679 50.0765C181.952 36.9347 175.38 24.9114 165.25 16.3629ZM161.045 82.1067C155.964 88.129 149.21 92.5092 141.639 94.6933C134.069 96.8775 126.02 96.7676 118.511 94.3775C111.003 91.9873 104.372 87.4244 99.4566 81.2655C94.5414 75.1068 91.5629 67.6287 90.8977 59.7771C90.2325 51.9255 91.9105 44.053 95.7196 37.1551C99.5286 30.2572 105.298 24.6437 112.297 21.0245C119.296 17.4052 127.212 15.9428 135.042 16.8222C142.873 17.7016 150.267 20.8832 156.289 25.9648C160.288 29.3388 163.583 33.4674 165.986 38.1148C168.389 42.7622 169.853 47.8374 170.295 53.0507C170.736 58.2639 170.147 63.5131 168.56 68.4986C166.973 73.484 164.419 78.1081 161.045 82.1067Z" fill="#3F3D56"/>
<path opacity="0.3" d="M104.903 86.8628C97.2603 80.4131 92.3223 71.325 91.0699 61.403C89.8174 51.481 92.3422 41.4509 98.1427 33.3042C97.381 34.0713 96.6446 34.8748 95.9335 35.7145C92.5594 39.7131 90.006 44.3371 88.419 49.3226C86.832 54.308 86.2425 59.5572 86.6842 64.7705C87.1259 69.9837 88.59 75.0589 90.9931 79.7063C93.3962 84.3537 96.6911 88.4823 100.69 91.8563C104.688 95.2303 109.313 97.7837 114.298 99.3707C119.283 100.958 124.533 101.547 129.746 101.106C134.959 100.664 140.035 99.1997 144.682 96.7966C149.329 94.3936 153.458 91.0987 156.832 87.1C157.541 86.2592 158.21 85.3982 158.836 84.5168C151.782 91.6052 142.319 95.7813 132.328 96.2159C122.336 96.6505 112.547 93.3118 104.903 86.8628Z" fill="black"/>
<path d="M214.639 127.817C215.201 127.954 215.787 127.967 216.355 127.854C216.923 127.74 217.459 127.504 217.925 127.161C218.392 126.818 218.777 126.377 219.055 125.869C219.333 125.361 219.495 124.798 219.532 124.22L233.093 120.456L227.581 115.65L215.548 119.961C214.573 119.964 213.633 120.324 212.906 120.974C212.179 121.623 211.716 122.517 211.604 123.485C211.492 124.454 211.739 125.429 212.298 126.228C212.858 127.026 213.69 127.592 214.639 127.817Z" fill="#FFB8B8"/>
<path d="M220.276 125.825L219.451 117.985L230.779 111.735L223.393 102.795L224.598 92.7516L227.599 91.4655L227.693 91.5855C229.108 93.4051 241.519 109.419 241.519 111.399C241.519 113.432 239.145 119.403 235.896 121.027C232.763 122.594 220.997 125.639 220.497 125.768L220.276 125.825Z" fill="#2F2E41"/>
<path d="M279.054 220H128.998C128.893 220 128.793 219.958 128.719 219.884C128.645 219.811 128.604 219.71 128.604 219.606C128.604 219.502 128.645 219.401 128.719 219.327C128.793 219.254 128.893 219.212 128.998 219.212H279.054C279.158 219.212 279.258 219.254 279.332 219.327C279.406 219.401 279.447 219.502 279.447 219.606C279.447 219.71 279.406 219.811 279.332 219.884C279.258 219.958 279.158 220 279.054 220Z" fill="#CCCCCC"/>
</g>
<defs>
<clipPath id="clip0_30_837">
<rect width="279.448" height="220" fill="white"/>
</clipPath>
</defs>
</svg>
