<svg width="290" height="220" viewBox="0 0 290 220" fill="none" xmlns="http://www.w3.org/2000/svg">
<g clip-path="url(#clip0_30_920)">
<path d="M115.707 45.6229H114.652V16.7252C114.652 14.5288 114.219 12.354 113.379 10.3248C112.538 8.29557 111.306 6.45179 109.753 4.89871C108.2 3.34563 106.356 2.11366 104.327 1.27314C102.298 0.432615 100.123 1.86095e-06 97.9267 0H36.7029C32.2671 -8.45616e-06 28.013 1.7621 24.8764 4.89867C21.7398 8.03525 19.9777 12.2894 19.9777 16.7252V175.26C19.9777 177.457 20.4103 179.632 21.2508 181.661C22.0913 183.69 23.3233 185.534 24.8764 187.087C26.4294 188.64 28.2732 189.872 30.3024 190.712C32.3316 191.553 34.5065 191.986 36.7029 191.986H97.9266C102.362 191.986 106.617 190.223 109.753 187.087C112.89 183.95 114.652 179.696 114.652 175.26V66.1928H115.707V45.6229Z" fill="#3F3D56"/>
<path d="M98.6014 4.35132H90.6097C90.9772 5.25236 91.1175 6.22995 91.0182 7.19798C90.9189 8.166 90.5831 9.09476 90.0403 9.90242C89.4975 10.7101 88.7644 11.3719 87.9056 11.8295C87.0468 12.2871 86.0887 12.5265 85.1156 12.5265H50.0413C49.0682 12.5265 48.11 12.2871 47.2512 11.8295C46.3924 11.3719 45.6593 10.7101 45.1166 9.90243C44.5738 9.09476 44.2379 8.16601 44.1386 7.19798C44.0393 6.22995 44.1796 5.25236 44.5472 4.35132H37.0829C35.4426 4.35132 33.8184 4.67439 32.3031 5.30208C30.7877 5.92977 29.4108 6.84979 28.251 8.00961C27.0911 9.16943 26.1711 10.5463 25.5434 12.0617C24.9157 13.5771 24.5927 15.2013 24.5927 16.8415V175.144C24.5926 176.784 24.9157 178.408 25.5434 179.924C26.1711 181.439 27.0911 182.816 28.2509 183.976C29.4108 185.136 30.7877 186.056 32.3031 186.683C33.8184 187.311 35.4426 187.634 37.0828 187.634H98.6014C100.242 187.634 101.866 187.311 103.381 186.683C104.897 186.056 106.274 185.136 107.433 183.976C108.593 182.816 109.513 181.439 110.141 179.924C110.769 178.408 111.092 176.784 111.092 175.144V16.8415C111.092 15.2013 110.769 13.5771 110.141 12.0617C109.513 10.5463 108.593 9.16943 107.433 8.00961C106.274 6.84979 104.897 5.92977 103.381 5.30208C101.866 4.67439 100.242 4.35132 98.6014 4.35132Z" fill="white"/>
<path d="M135.33 192.013H0.354267C0.26031 192.013 0.1702 191.976 0.103762 191.909C0.0373242 191.843 0 191.753 0 191.659C0 191.565 0.0373242 191.475 0.103762 191.408C0.1702 191.342 0.26031 191.304 0.354267 191.304H135.33C135.424 191.304 135.514 191.342 135.581 191.408C135.647 191.475 135.684 191.565 135.684 191.659C135.684 191.753 135.647 191.843 135.581 191.909C135.514 191.976 135.424 192.013 135.33 192.013Z" fill="#CBCBCB"/>
<path d="M67.8422 122.463C84.3646 122.463 97.7587 109.069 97.7587 92.5465C97.7587 76.0241 84.3646 62.63 67.8422 62.63C51.3197 62.63 37.9257 76.0241 37.9257 92.5465C37.9257 109.069 51.3197 122.463 67.8422 122.463Z" fill="#6B8E23"/>
<path d="M64.8777 103.959C64.2047 103.96 63.5495 103.742 63.011 103.338L62.9776 103.313L55.9468 97.935C55.6212 97.6854 55.348 97.3741 55.1427 97.0188C54.9373 96.6636 54.804 96.2714 54.7503 95.8646C54.6966 95.4578 54.7235 95.0444 54.8295 94.6481C54.9355 94.2517 55.1186 93.8801 55.3682 93.5545C55.6179 93.2288 55.9292 92.9556 56.2844 92.7503C56.6397 92.545 57.0319 92.4116 57.4387 92.3579C57.8454 92.3042 58.2588 92.3311 58.6552 92.4371C59.0516 92.5431 59.4232 92.7262 59.7488 92.9758L64.3028 96.468L75.064 82.4288C75.3136 82.1033 75.6248 81.8301 75.9799 81.6249C76.335 81.4197 76.727 81.2864 77.1336 81.2327C77.5402 81.179 77.9534 81.2059 78.3496 81.3119C78.7459 81.4179 79.1173 81.6009 79.4428 81.8504L79.4437 81.8511L79.3769 81.9438L79.4455 81.8511C80.1022 82.3558 80.5318 83.1003 80.6401 83.9214C80.7484 84.7425 80.5265 85.573 80.0232 86.2307L67.3656 102.737C67.0728 103.117 66.6962 103.425 66.2653 103.636C65.8343 103.847 65.3604 103.956 64.8804 103.955L64.8777 103.959Z" fill="white"/>
<path d="M245.948 194.953C246.312 194.365 246.741 193.819 247.226 193.325C247.426 193.118 247.637 192.922 247.854 192.732C249.177 191.555 250.789 190.751 252.526 190.404C254.262 190.056 256.06 190.177 257.734 190.755C259.408 191.332 260.898 192.345 262.051 193.689C263.203 195.034 263.977 196.661 264.293 198.403C265.754 193 261.95 187.678 258.127 183.589C254.301 179.502 249.928 175.019 249.95 169.419C249.96 166.303 251.485 163.523 253.786 161.462C253.857 161.4 253.928 161.337 254 161.277C256.782 158.893 260.361 157.646 264.022 157.785C270.824 158.149 276.762 162.72 280.887 168.143C287.525 176.867 290.434 189.114 285.787 199.046C281.699 207.781 272.98 212.968 264.083 217.138C262.84 217.72 261.6 218.285 260.363 218.832C260.354 218.835 260.345 218.84 260.337 218.843C260.278 218.869 260.218 218.895 260.162 218.922C259.907 219.035 259.651 219.147 259.398 219.259L259.515 219.335L259.881 219.572C259.754 219.495 259.629 219.421 259.502 219.344C259.464 219.321 259.424 219.299 259.387 219.276C255.017 216.653 250.586 213.879 247.567 209.786C244.435 205.535 243.177 199.447 245.948 194.953Z" fill="#F1F1F1"/>
<path d="M275.106 185.082C276.073 187.284 276.715 189.614 277.01 192.001C277.242 194.129 277.155 196.28 276.751 198.382C275.883 202.702 273.991 206.751 271.232 210.187C269.152 212.796 266.749 215.131 264.083 217.138C262.84 217.72 261.6 218.285 260.363 218.832C260.355 218.835 260.346 218.84 260.337 218.843C260.278 218.869 260.218 218.895 260.162 218.922C259.907 219.035 259.651 219.147 259.398 219.259L259.516 219.335L259.881 219.572C259.755 219.495 259.629 219.421 259.502 219.344C259.465 219.321 259.425 219.299 259.387 219.276C260.349 215.911 260.49 212.366 259.799 208.936C259.109 205.506 257.606 202.291 255.417 199.562C253.216 196.867 250.409 194.73 247.226 193.325C247.426 193.118 247.637 192.923 247.854 192.732C249.08 193.295 250.255 193.966 251.363 194.736C255.326 197.475 258.302 201.418 259.85 205.98C261.233 210.119 261.405 214.567 260.348 218.8C260.567 218.657 260.788 218.51 261.002 218.363C265.073 215.618 268.825 212.321 271.651 208.277C274.089 204.86 275.649 200.896 276.194 196.734C276.735 192.187 275.598 187.716 273.568 183.659C271.326 179.319 268.502 175.306 265.173 171.731C261.829 168.057 258.049 164.807 253.916 162.052C253.823 161.989 253.757 161.893 253.733 161.783C253.709 161.673 253.728 161.558 253.786 161.462C253.83 161.375 253.907 161.308 254.001 161.277C254.048 161.265 254.097 161.264 254.145 161.274C254.193 161.283 254.238 161.304 254.277 161.333C254.787 161.674 255.293 162.017 255.793 162.371C259.955 165.318 263.735 168.771 267.046 172.65C270.245 176.39 273.157 180.544 275.106 185.082Z" fill="white"/>
<path d="M186.005 13.891C189.514 13.891 192.359 11.0464 192.359 7.53753C192.359 4.02862 189.514 1.18408 186.005 1.18408C182.496 1.18408 179.652 4.02862 179.652 7.53753C179.652 11.0464 182.496 13.891 186.005 13.891Z" fill="#F1F1F1"/>
<path d="M265.007 98.9151C267.146 98.9151 268.88 97.1809 268.88 95.0415C268.88 92.9022 267.146 91.168 265.007 91.168C262.867 91.168 261.133 92.9022 261.133 95.0415C261.133 97.1809 262.867 98.9151 265.007 98.9151Z" fill="#F1F1F1"/>
<path d="M151.641 109.543C153.78 109.543 155.515 107.809 155.515 105.67C155.515 103.53 153.78 101.796 151.641 101.796C149.502 101.796 147.768 103.53 147.768 105.67C147.768 107.809 149.502 109.543 151.641 109.543Z" fill="#F1F1F1"/>
<path d="M153.828 220H288.804C288.898 220 288.988 219.963 289.055 219.896C289.121 219.83 289.158 219.74 289.158 219.646C289.158 219.552 289.121 219.462 289.055 219.395C288.988 219.329 288.898 219.292 288.804 219.292H153.828C153.734 219.292 153.644 219.329 153.578 219.395C153.511 219.462 153.474 219.552 153.474 219.646C153.474 219.74 153.511 219.83 153.578 219.896C153.644 219.963 153.734 220 153.828 220Z" fill="#CBCBCB"/>
<path d="M273.909 34.2347C274.086 32.9763 273.795 31.6967 273.092 30.6383C272.389 29.5798 271.322 28.8161 270.093 28.4918C268.865 28.1675 267.56 28.3052 266.426 28.8788C265.292 29.4523 264.408 30.4219 263.941 31.6038L252.988 44.1606L256.202 53.1366L267.217 38.4645C267.936 38.6947 268.696 38.7646 269.445 38.6691C270.194 38.5736 270.912 38.3151 271.55 37.9119C272.188 37.5086 272.73 36.9703 273.138 36.335C273.545 35.6997 273.808 34.9827 273.909 34.2347Z" fill="#FFB7B7"/>
<path d="M228.507 83.093L264.865 44.2905L259.961 36.4938L214.359 75.0607L228.507 83.093Z" fill="#3F3D56"/>
<path d="M220.392 59.5169C227.436 59.5169 233.146 53.8069 233.146 46.7633C233.146 39.7196 227.436 34.0096 220.392 34.0096C213.349 34.0096 207.639 39.7196 207.639 46.7633C207.639 53.8069 213.349 59.5169 220.392 59.5169Z" fill="#2F2E41"/>
<path d="M221.418 39.5586C224.162 36.7757 227.483 34.6281 231.147 33.2671C233.499 32.3958 236.059 31.8575 238.517 32.3523C240.976 32.8471 243.301 34.5481 243.987 36.9606C244.548 38.9332 243.969 41.0572 243.099 42.9142C242.228 44.7712 241.066 46.4932 240.362 48.4195C239.644 50.385 239.428 52.4987 239.734 54.5689C240.04 56.639 240.858 58.6 242.114 60.2738C243.369 61.9476 245.024 63.2812 246.926 64.1536C248.828 65.0259 250.918 65.4094 253.006 65.2692C250.59 65.5932 248.363 66.7285 246.001 67.3328C243.64 67.9371 240.853 67.8961 239.098 66.2044C237.241 64.4145 237.204 61.5042 237.294 58.9268C237.427 55.0955 237.561 51.2641 237.694 47.4327C237.762 45.4787 237.821 43.4622 237.116 41.6384C236.411 39.8147 234.737 38.2177 232.781 38.2343C231.3 38.2469 229.988 39.1445 228.8 40.0298C227.612 40.915 226.354 41.8595 224.878 41.9911C223.402 42.1228 221.717 41.0305 221.827 39.5529L221.418 39.5586Z" fill="#2F2E41"/>
<path d="M171.953 132.398C170.729 132.738 169.422 132.617 168.281 132.058C167.14 131.499 166.243 130.541 165.761 129.366C165.279 128.19 165.245 126.878 165.665 125.679C166.086 124.48 166.932 123.476 168.042 122.859L179.06 110.359L188.379 112.373L175.272 125.211C175.595 125.893 175.763 126.638 175.766 127.393C175.769 128.148 175.607 128.894 175.291 129.579C174.974 130.264 174.511 130.872 173.935 131.359C173.358 131.846 172.682 132.2 171.953 132.398Z" fill="#FFB7B7"/>
<path d="M208.202 87.6475L180.741 122.118L172.37 118.275L204.648 68.0236L208.202 87.6475Z" fill="#3F3D56"/>
<path d="M186.291 191.733L179.746 191.631L180.533 213.937H186.29L186.291 191.733Z" fill="#FFB7B7"/>
<path d="M187.758 212.058L176.421 212.058H176.421C174.505 212.058 172.667 212.819 171.312 214.174C169.957 215.529 169.196 217.366 169.196 219.282V219.517L187.758 219.518L187.758 212.058Z" fill="#2F2E41"/>
<path d="M229.624 185.817L222.474 190.407L236.775 207.612L241.62 204.502L229.624 185.817Z" fill="#FFB7B7"/>
<path d="M241.84 202.127L232.3 208.252L232.299 208.252C230.687 209.287 229.552 210.921 229.144 212.793C228.736 214.665 229.088 216.622 230.123 218.235L230.25 218.432L245.87 208.404L241.84 202.127Z" fill="#2F2E41"/>
<path d="M232.171 117.702C232.171 117.702 216.285 64.9417 211.18 64.2288C206.075 63.5158 197.85 77.7664 197.85 77.7664C187.186 91.3732 176.189 135.449 176.189 135.449C176.189 135.449 194.521 136.596 207.922 143.725C221.322 150.855 237.137 143.364 237.137 143.364L232.171 117.702Z" fill="#3F3D56"/>
<path opacity="0.1" d="M232.171 117.702C232.171 117.702 216.285 64.9417 211.18 64.2288C206.075 63.5158 199.939 77.911 199.939 77.911C194.625 99.8756 176.189 135.449 176.189 135.449C176.189 135.449 194.521 136.596 207.922 143.725C221.322 150.855 237.137 143.364 237.137 143.364L232.171 117.702Z" fill="black"/>
<path d="M219.138 101.916V128.428L222.258 166.832L237.846 195.882L230.406 201.196L209.15 173.563L200.743 146.125L187.54 206.864L177.62 206.156L184.509 121.942L197.582 98.2383L219.138 101.916Z" fill="#2F2E41"/>
<path d="M203.122 76.2736C198.162 81.2333 202.768 86.5474 202.768 86.5474L197.099 99.301L219.418 105.324L227.218 70.4713L221.904 64.803C211.276 64.4488 211.27 64.2285 211.27 64.2285C209.408 66.0508 203.122 76.2736 203.122 76.2736Z" fill="#6B8E23"/>
<path d="M228.117 66.8607C227.103 66.1125 225.951 65.5728 224.727 65.2729C223.503 64.9731 222.232 64.919 220.988 65.1138C219.743 65.3087 218.549 65.7486 217.475 66.408C216.402 67.0674 215.47 67.9333 214.733 68.9555C209.122 76.7679 203.934 89.383 211.083 105.116C222.561 130.379 232.549 143.311 236.609 143.31C236.787 143.312 236.963 143.284 237.131 143.228C239.631 142.38 243.245 138.151 243.899 134.424C244.133 133.09 244.077 131.231 242.482 129.955C237.899 126.29 229.672 114.877 227.106 99.8555C225.688 91.5551 228.438 83.9943 230.995 79.1132C232.075 77.0936 232.391 74.7524 231.885 72.5187C231.379 70.285 230.085 68.3085 228.24 66.9516L228.117 66.8607Z" fill="#3F3D56"/>
<path d="M221.048 58.2639C225.598 55.7769 227.27 50.0727 224.783 45.5232C222.296 40.9737 216.592 39.3016 212.042 41.7886C207.493 44.2756 205.821 49.9799 208.308 54.5294C210.795 59.0789 216.499 60.7509 221.048 58.2639Z" fill="#FFB7B7"/>
<path d="M203.342 49.3165H216.899L217.038 47.3702L217.733 49.3165H219.82L220.095 45.459L221.473 49.3165H225.512V49.1254C225.509 46.4399 224.441 43.8652 222.542 41.9662C220.643 40.0673 218.068 38.9991 215.383 38.9961H213.472C210.786 38.9991 208.211 40.0673 206.312 41.9662C204.413 43.8652 203.345 46.4398 203.342 49.1254V49.3165Z" fill="#2F2E41"/>
<path d="M223.464 56.3123L229.249 54.4352V40.3865H218.322L218.592 40.6566C222.356 44.4157 226.543 57.7525 223.464 56.3123Z" fill="#2F2E41"/>
</g>
<defs>
<clipPath id="clip0_30_920">
<rect width="289.158" height="220" fill="white"/>
</clipPath>
</defs>
</svg>
