<svg width="333" height="220" viewBox="0 0 333 220" fill="none" xmlns="http://www.w3.org/2000/svg">
<g clip-path="url(#clip0_30_874)">
<path d="M319.203 147.229C316.804 149.849 313.829 151.8 310.601 153.315H310.597C310.294 153.459 309.99 153.599 309.682 153.731H309.678L309.674 153.735L309.671 153.731H309.667L309.666 153.733L309.666 153.734L309.664 153.735L309.663 153.735H309.659L309.655 153.731C309.651 153.735 309.651 153.735 309.647 153.731L309.643 153.735L309.639 153.731H309.636C309.632 153.735 309.632 153.735 309.628 153.731H309.624C307.463 154.666 305.244 155.459 302.981 156.107C289.672 159.882 275.683 160.613 262.053 158.244C261.792 158.197 261.535 158.151 261.274 158.104V126.521C261.531 126.412 261.792 126.303 262.053 126.198C263.755 125.493 265.477 124.846 267.22 124.255C269.728 123.399 272.27 122.664 274.848 122.051C283.258 120.016 291.935 119.314 300.563 119.972C302.132 120.089 303.697 120.258 305.259 120.478C308.526 120.934 311.952 121.728 314.966 123.107H314.97C315.41 123.313 315.842 123.527 316.271 123.757C318.949 125.209 321.208 127.207 322.586 129.944C323.081 130.927 323.438 131.974 323.645 133.055V133.063C323.723 133.437 323.778 133.814 323.821 134.188C324.311 138.799 322.399 143.732 319.203 147.229Z" fill="#F2F2F2"/>
<path d="M323.821 134.188C323.782 134.198 323.743 134.203 323.704 134.204C317.034 134.496 310.373 134.929 303.721 135.504H303.709C303.682 135.508 303.659 135.508 303.631 135.512C296.802 136.104 289.986 136.845 283.185 137.736C282.897 137.774 282.612 137.813 282.328 137.848C277.625 138.475 272.93 139.171 268.244 139.936C266.177 140.274 264.113 140.627 262.053 140.995C261.792 141.041 261.535 141.084 261.274 141.135V139.955C261.535 139.904 261.796 139.862 262.053 139.815C268.914 138.6 275.798 137.54 282.706 136.634C284.443 136.4 286.182 136.179 287.924 135.972C292.954 135.364 297.993 134.84 303.039 134.399C303.409 134.367 303.775 134.336 304.145 134.305C310.605 133.756 317.074 133.339 323.552 133.055C323.583 133.054 323.615 133.056 323.645 133.063C324.268 133.117 324.401 134.052 323.821 134.188Z" fill="white"/>
<path d="M309.969 152.584C301.659 152.645 293.473 149.122 287.596 143.29C285.937 141.638 284.476 139.799 283.241 137.811C282.845 137.176 281.918 137.876 282.311 138.506C286.875 145.827 294.479 151.042 302.862 152.959C305.242 153.498 307.677 153.759 310.118 153.735C310.863 153.73 310.709 152.578 309.969 152.584Z" fill="white"/>
<path d="M274.848 122.051C274.813 122.161 274.749 122.259 274.663 122.336C274.578 122.413 274.474 122.467 274.361 122.491C272.457 122.99 270.617 123.709 268.879 124.633C266.341 125.974 264.036 127.716 262.053 129.792C261.948 129.897 261.847 130.002 261.75 130.111C261.586 130.283 261.43 130.458 261.274 130.637V128.939C261.524 128.675 261.785 128.414 262.053 128.165C263.618 126.666 265.352 125.354 267.22 124.255C269.728 123.399 272.27 122.664 274.848 122.051Z" fill="white"/>
<path d="M315.655 122.8C310.369 125.072 305.946 128.971 303.03 133.93C302.971 134.072 302.971 134.232 303.028 134.374C303.086 134.517 303.198 134.631 303.339 134.691C303.481 134.747 303.64 134.747 303.781 134.689C303.923 134.632 304.037 134.522 304.1 134.383C306.883 129.698 311.082 126.019 316.091 123.876C316.779 123.582 316.343 122.505 315.655 122.8Z" fill="white"/>
<path d="M331.589 89.7288C330.685 93.1631 328.953 96.2743 326.799 99.1129L326.795 99.1168C326.597 99.3815 326.391 99.6502 326.176 99.9072V99.9111C324.681 101.753 323.067 103.495 321.344 105.125C315.15 111.027 308.154 116.026 300.563 119.972C288.621 126.21 275.273 129.897 262.053 130.108C261.952 130.111 261.851 130.111 261.75 130.111C261.59 130.115 261.43 130.115 261.274 130.115V112.418C261.527 111.935 261.788 111.452 262.053 110.973C265.489 104.792 269.678 99.0605 274.525 93.9108C274.642 93.7823 274.763 93.6538 274.883 93.5292C276.706 91.6056 278.616 89.7742 280.615 88.035C288.305 81.2739 297.191 76.0111 306.816 72.5182C309.92 71.4046 313.323 70.5129 316.633 70.3377C317.119 70.3104 317.602 70.2987 318.089 70.3026C321.138 70.3454 324.062 71.0658 326.558 72.8492C327.452 73.4911 328.254 74.2523 328.941 75.1115C329.182 75.4113 329.404 75.7189 329.618 76.0343V76.0382C332.196 79.8931 332.796 85.1458 331.589 89.7288Z" fill="#F2F2F2"/>
<path d="M329.618 76.0343V76.0382C329.59 76.0634 329.558 76.0855 329.525 76.1044C323.762 79.457 318.072 82.9316 312.455 86.5281C312.447 86.532 312.443 86.5359 312.435 86.5398C312.413 86.5555 312.389 86.5698 312.365 86.5826C306.59 90.2817 300.898 94.1055 295.287 98.0538C295.053 98.2173 294.816 98.3848 294.578 98.5522C290.704 101.29 286.87 104.085 283.076 106.939C275.911 112.336 268.904 117.933 262.053 123.73C261.792 123.948 261.535 124.17 261.274 124.391V122.877C261.531 122.655 261.792 122.433 262.053 122.215C264.678 119.999 267.325 117.815 269.997 115.662C270.795 115.019 271.597 114.377 272.399 113.742C279.525 108.069 286.81 102.607 294.255 97.3568H294.259C295.723 96.3249 297.19 95.3022 298.659 94.2885C302.833 91.4149 307.054 88.61 311.322 85.874C311.629 85.6754 311.941 85.4768 312.252 85.2782C317.715 81.7894 323.25 78.4147 328.855 75.1543C328.883 75.1377 328.911 75.1234 328.941 75.1115C329.525 74.8779 330.074 75.6488 329.618 76.0343Z" fill="white"/>
<path d="M325.899 98.7599C318.569 102.674 309.683 103.356 301.769 100.922C299.533 100.229 297.385 99.2803 295.368 98.0933C294.722 97.7147 294.226 98.7657 294.867 99.1411C302.31 103.503 311.465 104.59 319.779 102.394C322.138 101.765 324.416 100.865 326.566 99.7104C327.224 99.3594 326.552 98.4113 325.899 98.7599Z" fill="white"/>
<path d="M271.056 113.007C270.693 110.968 270.569 108.895 270.685 106.828C270.947 102.113 272.391 97.5404 274.883 93.5299C276.707 91.6071 278.618 89.7754 280.616 88.0349C280.635 88.1487 280.624 88.2655 280.584 88.3737C280.544 88.4819 280.476 88.5779 280.388 88.652C278.934 89.9787 277.639 91.4692 276.528 93.0939C272.561 98.884 271.013 105.995 272.213 112.91C272.233 112.989 272.231 113.071 272.21 113.149C272.189 113.227 272.148 113.298 272.091 113.355C272.008 113.428 271.907 113.477 271.799 113.499C271.69 113.52 271.578 113.513 271.473 113.478C271.369 113.443 271.275 113.381 271.202 113.298C271.129 113.215 271.078 113.115 271.056 113.007Z" fill="white"/>
<path d="M317.099 69.7429C313.473 74.2101 311.368 79.7177 311.09 85.4641C311.103 85.6172 311.177 85.7587 311.294 85.858C311.411 85.9573 311.563 86.0064 311.716 85.9945C311.868 85.9782 312.008 85.904 312.107 85.7873C312.206 85.6706 312.256 85.5204 312.247 85.3678C312.536 79.9268 314.545 74.7182 317.985 70.493C318.458 69.9136 317.572 69.1624 317.099 69.7429Z" fill="white"/>
<path d="M276.776 82.5369V82.5408C276.748 82.8757 276.717 83.2067 276.682 83.5377V83.5454C276.411 85.9014 275.989 88.2373 275.417 90.5387C275.144 91.6679 274.848 92.7893 274.525 93.9107C274.486 94.0548 274.443 94.1989 274.4 94.3391V94.343C273.449 97.6045 272.313 100.809 270.997 103.941C268.576 109.708 265.58 115.216 262.053 120.381C261.8 120.759 261.539 121.136 261.274 121.51V60.533C261.535 60.5175 261.792 60.5175 262.053 60.5253C262.178 60.5253 262.302 60.5292 262.427 60.5369C263.526 60.5947 264.611 60.8057 265.651 61.1639C266.017 61.2846 266.371 61.4208 266.722 61.5727C270.97 63.4339 274.307 67.538 275.755 72.0509C276.842 75.4307 277.06 78.9858 276.776 82.5369Z" fill="#F2F2F2"/>
<path d="M266.722 61.5728C266.713 61.6109 266.698 61.6476 266.679 61.6818C265.102 64.7462 263.56 67.8262 262.053 70.9218C261.792 71.4553 261.531 71.9926 261.274 72.526V69.8783C261.531 69.3487 261.791 68.8191 262.053 68.2896C263.218 65.9299 264.401 63.5807 265.604 61.2418C265.618 61.2145 265.633 61.1884 265.651 61.1639C266.009 60.6499 266.897 61.0004 266.722 61.5728Z" fill="white"/>
<path d="M276.9 83.1639C276.83 83.2885 276.76 83.4131 276.682 83.5377C275.539 85.5302 274.178 87.3898 272.625 89.0825C269.642 92.3189 266.049 94.9349 262.053 96.7805C261.796 96.9051 261.535 97.0219 261.274 97.131V95.8655C261.535 95.7487 261.796 95.6279 262.053 95.5033C267.838 92.7443 272.642 88.286 275.826 82.7239C275.872 82.6445 275.934 82.5758 276.009 82.5226C276.084 82.4695 276.169 82.433 276.259 82.4156C276.349 82.3983 276.442 82.4005 276.531 82.4221C276.62 82.4437 276.704 82.4842 276.776 82.5409C276.825 82.5736 276.867 82.6156 276.9 82.6646C276.933 82.7137 276.956 82.7687 276.967 82.8265C276.979 82.8844 276.979 82.944 276.967 83.0019C276.956 83.0597 276.933 83.1148 276.9 83.1639Z" fill="white"/>
<path d="M262.053 12.8496V42.4425H261.274V42.1271H0.778761V42.4425H0V12.8496C0.00334415 9.44267 1.35821 6.17628 3.76724 3.76724C6.17628 1.35821 9.44267 0.00334415 12.8496 0H249.204C252.61 0.00334415 255.877 1.35821 258.286 3.76724C260.695 6.17628 262.05 9.44267 262.053 12.8496Z" fill="#6B8E23"/>
<path d="M249.204 0H12.8496C9.44267 0.00334415 6.17628 1.35821 3.76724 3.76724C1.35821 6.17628 0.00334415 9.44267 0 12.8496V181.841C0.00334415 185.248 1.35821 188.514 3.76724 190.923C6.17628 193.332 9.44267 194.687 12.8496 194.69H249.204C252.61 194.687 255.877 193.332 258.286 190.923C260.695 188.514 262.05 185.248 262.053 181.841V12.8496C262.05 9.44267 260.695 6.17628 258.286 3.76724C255.877 1.35821 252.61 0.00334415 249.204 0ZM261.274 181.841C261.27 185.041 259.997 188.109 257.734 190.372C255.472 192.634 252.404 193.907 249.204 193.912H12.8496C9.64944 193.907 6.58155 192.634 4.31872 190.372C2.05589 188.109 0.782844 185.041 0.778761 181.841V12.8496C0.782844 9.64944 2.05589 6.58156 4.31872 4.31873C6.58155 2.0559 9.64944 0.782844 12.8496 0.778761H249.204C252.404 0.782845 255.472 2.0559 257.734 4.31873C259.997 6.58156 261.27 9.64944 261.274 12.8496V181.841Z" fill="#3F3D56"/>
<path d="M52.9557 29.0088C57.2567 29.0088 60.7433 25.5222 60.7433 21.2212C60.7433 16.9202 57.2567 13.4336 52.9557 13.4336C48.6547 13.4336 45.1681 16.9202 45.1681 21.2212C45.1681 25.5222 48.6547 29.0088 52.9557 29.0088Z" fill="white"/>
<path d="M209.097 29.0088C213.398 29.0088 216.885 25.5222 216.885 21.2212C216.885 16.9202 213.398 13.4336 209.097 13.4336C204.796 13.4336 201.31 16.9202 201.31 21.2212C201.31 25.5222 204.796 29.0088 209.097 29.0088Z" fill="white"/>
<path d="M75.4559 108.054H29.1289C27.1663 108.052 25.2846 107.271 23.8968 105.883C22.5091 104.495 21.7284 102.614 21.7262 100.651V78.7552C21.7284 76.7926 22.5091 74.911 23.8968 73.5232C25.2846 72.1354 27.1663 71.3548 29.1289 71.3525H75.4559C77.4186 71.3548 79.3002 72.1354 80.688 73.5232C82.0757 74.911 82.8564 76.7926 82.8586 78.7552V100.651C82.8564 102.614 82.0757 104.495 80.688 105.883C79.3002 107.271 77.4186 108.052 75.4559 108.054Z" fill="#6B8E23"/>
<path d="M154.266 108.054H107.939C105.976 108.052 104.095 107.271 102.707 105.883C101.319 104.495 100.539 102.614 100.536 100.651V78.7552C100.539 76.7926 101.319 74.911 102.707 73.5232C104.095 72.1354 105.976 71.3548 107.939 71.3525H154.266C156.229 71.3548 158.11 72.1354 159.498 73.5232C160.886 74.911 161.667 76.7926 161.669 78.7552V100.651C161.667 102.614 160.886 104.495 159.498 105.883C158.11 107.271 156.229 108.052 154.266 108.054Z" fill="#6B8E23"/>
<path d="M154.266 164.627H107.939C105.917 164.625 103.978 163.821 102.548 162.391C101.119 160.961 100.314 159.023 100.312 157V135.104C100.314 133.082 101.119 131.144 102.548 129.714C103.978 128.284 105.917 127.48 107.939 127.477H154.266C156.288 127.48 158.227 128.284 159.657 129.714C161.086 131.144 161.891 133.082 161.893 135.104V157C161.891 159.023 161.086 160.961 159.657 162.391C158.227 163.821 156.288 164.625 154.266 164.627Z" fill="#F2F2F2"/>
<path d="M75.304 164.627H28.977C26.9549 164.625 25.0162 163.821 23.5864 162.391C22.1565 160.961 21.3523 159.023 21.35 157V135.104C21.3523 133.082 22.1565 131.144 23.5864 129.714C25.0162 128.284 26.9549 127.48 28.977 127.477H75.304C77.3261 127.48 79.2647 128.284 80.6946 129.714C82.1244 131.144 82.9287 133.082 82.931 135.104V157C82.9287 159.023 82.1244 160.961 80.6946 162.391C79.2647 163.821 77.3261 164.625 75.304 164.627Z" fill="#F2F2F2"/>
<path d="M233.076 164.627H186.749C184.727 164.625 182.788 163.821 181.358 162.391C179.929 160.961 179.124 159.023 179.122 157V135.104C179.124 133.082 179.929 131.144 181.358 129.714C182.788 128.284 184.727 127.48 186.749 127.477H233.076C235.098 127.48 237.037 128.284 238.467 129.714C239.897 131.144 240.701 133.082 240.703 135.104V157C240.701 159.023 239.897 160.961 238.467 162.391C237.037 163.821 235.098 164.625 233.076 164.627Z" fill="#F2F2F2"/>
<path d="M233.076 108.098H186.749C184.727 108.096 182.788 107.291 181.358 105.861C179.929 104.432 179.124 102.493 179.122 100.471V78.5748C179.124 76.5527 179.929 74.614 181.358 73.1842C182.788 71.7543 184.727 70.95 186.749 70.9478H233.076C235.098 70.95 237.037 71.7543 238.467 73.1842C239.897 74.614 240.701 76.5527 240.703 78.5748V100.471C240.701 102.493 239.897 104.432 238.467 105.861C237.037 107.291 235.098 108.096 233.076 108.098Z" fill="#F2F2F2"/>
<path d="M52.2925 102.265C59.2304 102.265 64.8546 96.6411 64.8546 89.7032C64.8546 82.7654 59.2304 77.1411 52.2925 77.1411C45.3546 77.1411 39.7303 82.7654 39.7303 89.7032C39.7303 96.6411 45.3546 102.265 52.2925 102.265Z" fill="white"/>
<path d="M51.0473 94.4953C50.7646 94.4959 50.4895 94.4045 50.2633 94.2349L50.2493 94.2244L47.2971 91.9641C47.1602 91.8595 47.0453 91.7288 46.9589 91.5797C46.8725 91.4305 46.8164 91.2658 46.7937 91.095C46.771 90.9241 46.7821 90.7505 46.8266 90.584C46.871 90.4174 46.9479 90.2613 47.0527 90.1245C47.1575 89.9877 47.2883 89.8729 47.4375 89.7867C47.5867 89.7004 47.7515 89.6444 47.9223 89.6219C48.0932 89.5994 48.2668 89.6107 48.4333 89.6553C48.5998 89.7 48.7558 89.7769 48.8926 89.8819L50.8048 91.3482L55.3236 85.4549C55.4284 85.3182 55.5591 85.2035 55.7082 85.1174C55.8574 85.0312 56.022 84.9752 56.1928 84.9527C56.3635 84.9301 56.5371 84.9415 56.7035 84.986C56.8698 85.0305 57.0258 85.1074 57.1625 85.2122L57.1344 85.2503L57.1632 85.2127C57.4389 85.4246 57.6193 85.7373 57.6648 86.082C57.7104 86.4268 57.6172 86.7755 57.406 87.0517L52.0907 93.9835C51.9678 94.1432 51.8097 94.2725 51.6288 94.3613C51.4478 94.45 51.2488 94.4959 51.0473 94.4953Z" fill="#6B8E23"/>
<path d="M131.327 102.085C138.265 102.085 143.889 96.4607 143.889 89.5228C143.889 82.5849 138.265 76.9607 131.327 76.9607C124.389 76.9607 118.765 82.5849 118.765 89.5228C118.765 96.4607 124.389 102.085 131.327 102.085Z" fill="white"/>
<path d="M130.082 94.3149C129.799 94.3154 129.524 94.2241 129.298 94.0545L129.284 94.044L126.332 91.7837C126.055 91.5722 125.875 91.2596 125.829 90.9147C125.783 90.5699 125.877 90.221 126.088 89.9449C126.3 89.6688 126.612 89.488 126.957 89.4423C127.302 89.3967 127.651 89.4899 127.927 89.7015L129.839 91.1677L134.358 85.2745C134.463 85.1378 134.593 85.0231 134.743 84.9369C134.892 84.8508 135.056 84.7948 135.227 84.7723C135.398 84.7497 135.571 84.761 135.738 84.8056C135.904 84.8501 136.06 84.9269 136.197 85.0318L136.169 85.0699L136.198 85.0323C136.473 85.2442 136.654 85.5568 136.699 85.9016C136.745 86.2463 136.652 86.595 136.44 86.8712L131.125 93.8031C131.002 93.9628 130.844 94.0921 130.663 94.1808C130.482 94.2696 130.283 94.3155 130.082 94.3149Z" fill="#6B8E23"/>
<path d="M216.228 148.802C216.641 148.35 216.949 147.814 217.132 147.231C217.315 146.647 217.368 146.031 217.287 145.424C217.206 144.818 216.993 144.237 216.663 143.722C216.333 143.207 215.895 142.771 215.378 142.444L208.365 104.996L199.835 108.159L209.411 143.975C208.919 144.879 208.776 145.933 209.009 146.935C209.242 147.938 209.835 148.821 210.675 149.416C211.516 150.011 212.545 150.277 213.568 150.164C214.592 150.051 215.538 149.566 216.228 148.802Z" fill="#A0616A"/>
<path d="M148.17 91.6603C148.191 91.8928 148.194 92.1267 148.178 92.3597L164.762 105.123L169.465 103.192L173.307 109.909L165.314 114.137C164.668 114.478 163.929 114.601 163.208 114.487C162.486 114.372 161.821 114.027 161.312 113.503L144.736 96.4132C143.859 96.6111 142.942 96.5372 142.107 96.2012C141.273 95.8653 140.561 95.2833 140.065 94.5326C139.569 93.782 139.314 92.8982 139.333 91.9989C139.352 91.0996 139.644 90.2274 140.171 89.4983C140.698 88.7692 141.434 88.2177 142.282 87.9173C143.13 87.6168 144.049 87.5816 144.917 87.8163C145.786 88.051 146.562 88.5445 147.143 89.2312C147.724 89.9178 148.082 90.7651 148.17 91.6603Z" fill="#A0616A"/>
<path d="M186.914 215.269H182.14L179.869 200.749L186.915 200.75L186.914 215.269Z" fill="#A0616A"/>
<path d="M188.131 219.896L172.739 219.896V219.701C172.739 218.914 172.894 218.135 173.195 217.408C173.496 216.681 173.937 216.021 174.494 215.465C175.05 214.908 175.71 214.467 176.437 214.166C177.164 213.865 177.943 213.71 178.73 213.71L188.131 213.71L188.131 219.896Z" fill="#2F2E41"/>
<path d="M204.825 215.269H200.052L197.78 200.749L204.826 200.75L204.825 215.269Z" fill="#A0616A"/>
<path d="M206.043 219.896L190.65 219.896V219.701C190.65 218.914 190.805 218.135 191.106 217.408C191.407 216.681 191.849 216.021 192.405 215.465C192.961 214.908 193.622 214.467 194.349 214.166C195.076 213.865 195.855 213.71 196.641 213.71L206.043 213.71L206.043 219.896Z" fill="#2F2E41"/>
<path d="M181.149 212.399C180.713 212.399 180.293 212.237 179.97 211.944C179.648 211.65 179.447 211.247 179.406 210.813L175.246 154.863L175.443 154.848L204.071 152.495L204.078 152.698L206.354 210.657C206.363 210.893 206.324 211.128 206.24 211.348C206.156 211.568 206.028 211.769 205.865 211.939C205.701 212.108 205.505 212.243 205.289 212.335C205.072 212.428 204.839 212.475 204.603 212.475H198.99C198.571 212.477 198.165 212.328 197.847 212.055C197.529 211.782 197.32 211.404 197.258 210.989L189.635 164.168C189.628 164.12 189.603 164.076 189.564 164.046C189.526 164.015 189.478 164 189.429 164.004C189.38 164.007 189.334 164.029 189.301 164.065C189.268 164.101 189.249 164.148 189.248 164.196L188.903 210.425C188.899 210.872 188.725 211.3 188.417 211.623C188.108 211.946 187.688 212.139 187.243 212.163L181.243 212.396C181.211 212.398 181.18 212.399 181.149 212.399Z" fill="#2F2E41"/>
<path d="M186.035 84.155C191.317 84.155 195.599 79.8732 195.599 74.5914C195.599 69.3096 191.317 65.0278 186.035 65.0278C180.753 65.0278 176.472 69.3096 176.472 74.5914C176.472 79.8732 180.753 84.155 186.035 84.155Z" fill="#A0616A"/>
<path d="M187.886 158.432C183.706 158.419 179.547 157.851 175.516 156.741C175.129 156.628 174.792 156.385 174.562 156.053C174.333 155.72 174.225 155.319 174.257 154.916C175.544 135.567 175.847 120.551 173.139 110.161C171.985 105.733 172.509 101.07 174.577 97.3663C177.688 91.7931 183.406 88.4011 189.506 88.5182C189.797 88.5237 190.091 88.5341 190.389 88.5494C199.645 89.026 206.858 97.4002 206.468 107.217L204.606 154.008C204.599 154.35 204.491 154.681 204.296 154.962C204.101 155.242 203.827 155.458 203.51 155.583C198.515 157.462 193.223 158.427 187.886 158.432Z" fill="#3F3D56"/>
<path d="M174.713 113.754L167.549 104.976C167.346 104.726 167.198 104.435 167.117 104.123C167.035 103.811 167.022 103.485 167.078 103.168C167.134 102.85 167.258 102.549 167.441 102.283C167.624 102.018 167.862 101.795 168.139 101.63L177.843 95.8477C179.127 94.8119 180.769 94.3275 182.409 94.5006C184.05 94.6738 185.555 95.4905 186.594 96.7716C187.633 98.0526 188.122 99.6936 187.953 101.334C187.784 102.975 186.971 104.482 185.693 105.525L178.109 113.847C177.892 114.085 177.626 114.274 177.329 114.4C177.032 114.526 176.712 114.587 176.39 114.578C176.067 114.569 175.751 114.491 175.462 114.349C175.172 114.207 174.917 114.004 174.713 113.754Z" fill="#3F3D56"/>
<path d="M197.249 112.652C196.954 112.521 196.692 112.327 196.479 112.085C196.267 111.843 196.109 111.557 196.017 111.248L192.792 100.46C192.092 98.9666 192.013 97.2561 192.572 95.7041C193.131 94.1521 194.283 92.8853 195.775 92.1815C197.267 91.4778 198.978 91.3945 200.531 91.95C202.085 92.5055 203.354 93.6544 204.062 95.1448L210.298 104.563C210.476 104.832 210.594 105.136 210.644 105.455C210.694 105.773 210.674 106.099 210.587 106.409C210.5 106.719 210.347 107.007 210.138 107.253C209.93 107.499 209.671 107.697 209.379 107.834L199.117 112.637C198.825 112.774 198.507 112.846 198.184 112.849C197.862 112.851 197.543 112.784 197.249 112.652Z" fill="#3F3D56"/>
<path d="M190.761 82.4386L183.672 80.816C182.941 80.6487 182.062 80.3293 181.961 79.5861C181.824 78.5873 183.262 77.8914 183.129 76.8921C183.001 75.9242 181.691 75.7995 180.758 75.5138C179.888 75.2088 179.171 74.5774 178.759 73.7532C178.347 72.9291 178.272 71.9768 178.549 71.0981C177.539 72.5217 175.231 72.6436 173.921 71.4903C172.61 70.3369 172.359 68.2443 173.146 66.6862C173.571 65.9208 174.171 65.2666 174.896 64.7767C175.622 64.2868 176.453 63.9751 177.322 63.8669C179.068 63.6688 180.835 63.998 182.393 64.8122C182.496 63.709 183.874 63.2617 184.982 63.2518C187.284 63.2787 189.52 64.0224 191.38 65.3795C193.239 66.7367 194.629 68.6397 195.356 70.8238C196.716 75.2052 195.807 80.0079 192.002 82.5714L190.761 82.4386Z" fill="#2F2E41"/>
<path d="M262.165 220H113.811C113.708 220 113.609 219.959 113.536 219.886C113.463 219.813 113.422 219.714 113.422 219.611C113.422 219.507 113.463 219.408 113.536 219.335C113.609 219.262 113.708 219.221 113.811 219.221H262.165C262.268 219.221 262.367 219.262 262.44 219.335C262.513 219.408 262.554 219.507 262.554 219.611C262.554 219.714 262.513 219.813 262.44 219.886C262.367 219.959 262.268 220 262.165 220Z" fill="#3F3D56"/>
</g>
<defs>
<clipPath id="clip0_30_874">
<rect width="332.187" height="220" fill="white"/>
</clipPath>
</defs>
</svg>
