<svg width="18" height="18" viewBox="0 0 18 18" fill="none" xmlns="http://www.w3.org/2000/svg">
<path d="M15.1875 8.11055C14.8329 7.95488 14.4498 7.87467 14.0625 7.875H3.9375C3.55026 7.87463 3.16716 7.95472 2.8125 8.1102C2.31124 8.3294 1.8847 8.68989 1.58502 9.1476C1.28533 9.60531 1.12548 10.1404 1.125 10.6875V14.625C1.125 14.7742 1.18426 14.9173 1.28975 15.0227C1.39524 15.1282 1.53832 15.1875 1.6875 15.1875C1.83668 15.1875 1.97976 15.1282 2.08525 15.0227C2.19074 14.9173 2.25 14.7742 2.25 14.625V14.3438C2.25091 14.2694 2.28084 14.1984 2.33338 14.1459C2.38593 14.0933 2.45694 14.0634 2.53125 14.0625H15.4688C15.5431 14.0634 15.6141 14.0933 15.6666 14.1459C15.7192 14.1984 15.7491 14.2694 15.75 14.3438V14.625C15.75 14.7742 15.8093 14.9173 15.9148 15.0227C16.0202 15.1282 16.1633 15.1875 16.3125 15.1875C16.4617 15.1875 16.6048 15.1282 16.7102 15.0227C16.8157 14.9173 16.875 14.7742 16.875 14.625V10.6875C16.8745 10.1405 16.7146 9.60544 16.4149 9.1478C16.1152 8.69016 15.6887 8.32973 15.1875 8.11055ZM13.2188 2.8125H4.78125C4.2591 2.8125 3.75835 3.01992 3.38913 3.38913C3.01992 3.75835 2.8125 4.25911 2.8125 4.78125V7.3125C2.81252 7.33429 2.8176 7.35578 2.82734 7.37527C2.83708 7.39477 2.85122 7.41173 2.86864 7.42482C2.88607 7.43791 2.90629 7.44677 2.92772 7.45071C2.94916 7.45465 2.97121 7.45355 2.99215 7.4475C3.29922 7.35769 3.61756 7.31223 3.9375 7.3125H4.08621C4.12092 7.31272 4.15449 7.3001 4.18045 7.27705C4.20641 7.25401 4.22293 7.22219 4.22684 7.1877C4.25752 6.91284 4.38837 6.65892 4.59439 6.47442C4.80042 6.28992 5.06719 6.18778 5.34375 6.1875H7.3125C7.58924 6.18752 7.85627 6.28955 8.06252 6.47407C8.26877 6.65859 8.39977 6.91266 8.43047 7.1877C8.43437 7.22219 8.4509 7.25401 8.47686 7.27705C8.50282 7.3001 8.53638 7.31272 8.57109 7.3125H9.43102C9.46573 7.31272 9.49929 7.3001 9.52525 7.27705C9.55121 7.25401 9.56774 7.22219 9.57164 7.1877C9.6023 6.91302 9.733 6.65924 9.9388 6.47477C10.1446 6.2903 10.4111 6.18804 10.6875 6.1875H12.6562C12.933 6.18752 13.2 6.28955 13.4063 6.47407C13.6125 6.65859 13.7435 6.91266 13.7742 7.1877C13.7781 7.22219 13.7946 7.25401 13.8206 7.27705C13.8466 7.3001 13.8801 7.31272 13.9148 7.3125H14.0625C14.3825 7.31235 14.7008 7.35792 15.0079 7.44785C15.0288 7.45391 15.0509 7.455 15.0724 7.45105C15.0938 7.44709 15.1141 7.4382 15.1315 7.42507C15.1489 7.41193 15.1631 7.39493 15.1728 7.37539C15.1825 7.35585 15.1875 7.33432 15.1875 7.3125V4.78125C15.1875 4.25911 14.9801 3.75835 14.6109 3.38913C14.2417 3.01992 13.7409 2.8125 13.2188 2.8125Z" fill="#F8F7F7"/>
</svg>
