<svg
  width="100"
  height="95"
  viewBox="0 0 100 95"
  fill="none"
  xmlns="http://www.w3.org/2000/svg"
>
  <g clip-path="url(#clip0_43_552)">
    <path
      d="M50.1088 69.3658C39.0393 69.4141 30.0242 60.4715 30.0242 49.4262C30.0242 44.9307 31.5468 40.5803 34.3263 37.0516L35.003 36.2781C35.0755 36.2056 35.1722 36.109 35.2447 36.0364L54.9426 14.1875C58.0363 16.967 58.3021 21.7283 55.5227 24.7978L40.6586 41.2812C38.6767 43.5289 37.5891 46.4292 37.5891 49.4262C37.5891 56.3144 43.2689 61.9458 50.2054 61.825C57.0212 61.7041 62.4592 56.0485 62.4592 49.2328V44.0606C62.4592 39.9035 65.8187 36.544 70 36.544V49.1845C69.9758 60.2298 61.1299 69.3174 50.1088 69.3658Z"
      fill="#6B8E23"
    />
    <path
      d="M65.6737 32.2902V32.3386L45.1057 55.1543C42.0121 52.3748 41.7462 47.6135 44.5257 44.544L59.3897 28.0606C61.3716 25.8129 62.4592 22.8884 62.4592 19.9156C62.4592 13.0274 56.7795 7.39597 49.8429 7.51681C42.9789 7.61349 37.5408 13.2932 37.5408 20.109V25.2812C37.5408 29.4383 34.1813 32.7978 30 32.7978V20.1573C30.0242 9.16032 38.8701 0.0485334 49.8671 0.000195047C60.9366 -0.0481433 69.9517 8.89446 69.9517 19.9398C69.9758 24.4352 68.4532 28.7857 65.6737 32.2902Z"
      fill="#6B8E23"
    />
    <path
      d="M0 88.7525V75.3446H5.96112C6.91489 75.3446 7.75862 75.5402 8.4923 75.9315C9.22597 76.3228 9.79457 76.8731 10.1981 77.5823C10.6016 78.2915 10.8034 79.0986 10.8034 80.0034C10.8034 80.9694 10.5588 81.8315 10.0697 82.5896C9.58058 83.3478 8.91416 83.9041 8.07043 84.2587C8.93861 85.3593 10.0942 86.8572 11.5371 88.7525H8.07043C7.28784 87.7743 6.2179 86.3803 4.8606 84.5706H2.87968V88.7525H0ZM5.96112 82.0577C6.46246 82.0577 6.91489 81.8774 7.31842 81.5166C7.72194 81.1559 7.9237 80.6515 7.9237 80.0034C7.9237 79.4776 7.78308 78.9885 7.50183 78.5361C7.22059 78.0836 6.70702 77.8574 5.96112 77.8574H2.87968V82.0577H5.96112ZM15.0679 88.2848C14.2303 87.814 13.5669 87.1751 13.0778 86.3681C12.5887 85.561 12.3441 84.6806 12.3441 83.7268C12.3441 82.7853 12.5887 81.911 13.0778 81.1039C13.5669 80.2969 14.2303 79.658 15.0679 79.1872C15.9055 78.7164 16.8195 78.481 17.81 78.481C18.8004 78.481 19.7175 78.7164 20.5613 79.1872C21.405 79.658 22.0745 80.2969 22.5697 81.1039C23.0649 81.911 23.3125 82.7853 23.3125 83.7268C23.3125 84.6806 23.0649 85.561 22.5697 86.3681C22.0745 87.1751 21.405 87.814 20.5613 88.2848C19.7175 88.7556 18.8004 88.991 17.81 88.991C16.8195 88.991 15.9055 88.7556 15.0679 88.2848ZM16.416 81.2598C15.988 81.5105 15.6517 81.8529 15.4072 82.287C15.1626 82.7211 15.0404 83.201 15.0404 83.7268C15.0404 84.2771 15.1596 84.7693 15.398 85.2033C15.6365 85.6374 15.9666 85.9798 16.3885 86.2305C16.8103 86.4812 17.2842 86.6065 17.81 86.6065C18.3236 86.6065 18.7913 86.4812 19.2131 86.2305C19.635 85.9798 19.9682 85.6344 20.2128 85.1942C20.4573 84.754 20.5796 84.2649 20.5796 83.7268C20.5796 83.201 20.4573 82.7211 20.2128 82.287C19.9682 81.8529 19.635 81.5105 19.2131 81.2598C18.7913 81.0092 18.3236 80.8838 17.81 80.8838C17.3086 80.8838 16.844 81.0092 16.416 81.2598ZM27.7971 88.2848C26.9595 87.814 26.2962 87.1751 25.807 86.3681C25.3179 85.561 25.0734 84.6806 25.0734 83.7268C25.0734 82.7853 25.3179 81.911 25.807 81.1039C26.2962 80.2969 26.9595 79.658 27.7971 79.1872C28.6348 78.7164 29.5488 78.481 30.5393 78.481C31.5297 78.481 32.4468 78.7164 33.2905 79.1872C34.1343 79.658 34.8037 80.2969 35.299 81.1039C35.7942 81.911 36.0418 82.7853 36.0418 83.7268C36.0418 84.6806 35.7942 85.561 35.299 86.3681C34.8037 87.1751 34.1343 87.814 33.2905 88.2848C32.4468 88.7556 31.5297 88.991 30.5393 88.991C29.5488 88.991 28.6348 88.7556 27.7971 88.2848ZM29.1453 81.2598C28.7173 81.5105 28.381 81.8529 28.1365 82.287C27.8919 82.7211 27.7696 83.201 27.7696 83.7268C27.7696 84.2771 27.8888 84.7693 28.1273 85.2033C28.3657 85.6374 28.6959 85.9798 29.1178 86.2305C29.5396 86.4812 30.0135 86.6065 30.5393 86.6065C31.0528 86.6065 31.5205 86.4812 31.9424 86.2305C32.3643 85.9798 32.6975 85.6344 32.942 85.1942C33.1866 84.754 33.3089 84.2649 33.3089 83.7268C33.3089 83.201 33.1866 82.7211 32.942 82.287C32.6975 81.8529 32.3643 81.5105 31.9424 81.2598C31.5205 81.0092 31.0528 80.8838 30.5393 80.8838C30.0379 80.8838 29.5732 81.0092 29.1453 81.2598ZM53.3291 79.6182C54.0199 80.3764 54.3654 81.4341 54.3654 82.7914V88.7525H51.5957V82.7914C51.5957 82.0699 51.4154 81.5503 51.0547 81.2323C50.6939 80.9144 50.2201 80.7554 49.6332 80.7554C49.144 80.7554 48.7038 80.9389 48.3125 81.3057C47.9213 81.6725 47.7195 82.2839 47.7073 83.1399V88.7525H44.9376V82.7914C44.9376 82.0699 44.7573 81.5503 44.3966 81.2323C44.0358 80.9144 43.5681 80.7554 42.9934 80.7554C42.4676 80.7554 42.0121 80.9511 41.6269 81.3424C41.2417 81.7337 41.0492 82.4246 41.0492 83.415L41.0308 88.7525H38.2979V78.6645H41.0308V79.5816C41.3854 79.2636 41.8134 79.0007 42.3147 78.7929C42.8161 78.585 43.2746 78.481 43.6904 78.481C45.1088 78.481 46.191 78.9396 46.9369 79.8567C47.316 79.4287 47.7867 79.0924 48.3492 78.8479C48.9117 78.6033 49.5231 78.481 50.1834 78.481C51.5896 78.481 52.6382 78.8601 53.3291 79.6182ZM60.3999 85.882C61.268 86.2305 62.0629 86.4047 62.7843 86.4047C63.5424 86.4047 64.1447 86.258 64.591 85.9645C65.0373 85.6711 65.2605 85.3226 65.2605 84.9191C65.2605 84.5889 65.129 84.3199 64.8661 84.112C64.6032 83.9041 64.27 83.7482 63.8665 83.6443C63.4629 83.5404 62.931 83.4272 62.2707 83.305C61.3903 83.1582 60.5833 82.9687 59.8496 82.7364C59.1159 82.504 58.4495 82.1005 57.8503 81.5258C57.2512 80.9511 56.9516 80.1746 56.9516 79.1964C56.9516 77.7535 57.4804 76.7172 58.5382 76.0874C59.5959 75.4577 60.8401 75.1428 62.2707 75.1428C63.3712 75.1428 64.3281 75.2926 65.1412 75.5922C65.9544 75.8918 66.7645 76.3412 67.5715 76.9403L65.9575 79.1414C65.3583 78.7134 64.7347 78.3771 64.0866 78.1326C63.4385 77.888 62.7965 77.7657 62.1607 77.7657C61.5982 77.7657 61.0724 77.8666 60.5833 78.0684C60.0942 78.2701 59.8496 78.6094 59.8496 79.0863C59.8496 79.3798 59.9749 79.6152 60.2256 79.7925C60.4763 79.9698 60.7514 80.0982 61.051 80.1777C61.3506 80.2572 61.8366 80.3703 62.5092 80.517L63.1695 80.6454C64.1844 80.841 65.0251 81.0581 65.6915 81.2965C66.3579 81.535 66.9357 81.9354 67.4248 82.4979C67.9139 83.0604 68.1585 83.843 68.1585 84.8457C68.1585 86.203 67.6785 87.2362 66.7186 87.9455C65.7587 88.6547 64.4595 89.0093 62.821 89.0093C60.4243 89.0093 58.4067 88.3123 56.7682 86.9183L58.3089 84.6989C58.8347 85.1392 59.5317 85.5335 60.3999 85.882ZM70.1577 84.6623V78.7011H72.9274V84.6623C72.9274 85.3837 73.1077 85.9003 73.4685 86.2122C73.8292 86.524 74.303 86.6799 74.89 86.6799C75.4035 86.6799 75.8621 86.4812 76.2656 86.0838C76.6691 85.6864 76.8525 85.0046 76.8158 84.0386V78.7011H79.5671V88.7525H76.8158V87.8904C76.4857 88.2328 76.0852 88.4988 75.6145 88.6883C75.1437 88.8778 74.6454 88.9726 74.1196 88.9726C71.4784 88.9726 70.1577 87.5358 70.1577 84.6623ZM87.0506 81.2965C86.5248 81.4249 86.0418 81.7276 85.6016 82.2045C85.1614 82.6813 84.9413 83.3783 84.9413 84.2954V88.7525H82.2084V78.6645H84.9413V80.0034C85.3937 79.4043 85.9471 78.9977 86.6012 78.7837C87.2554 78.5697 87.8516 78.4688 88.3896 78.481V81.159C88.0228 81.1223 87.5764 81.1681 87.0506 81.2965ZM92.3056 88.5141C91.468 88.1839 90.7496 87.6245 90.1504 86.8358C89.5512 86.0471 89.2516 85.0169 89.2516 83.7452C89.2516 82.4735 89.5543 81.4463 90.1596 80.6637C90.7649 79.8811 91.4894 79.3248 92.3331 78.9946C93.1768 78.6645 93.9777 78.4994 94.7359 78.4994C95.6163 78.4994 96.4539 78.695 97.2487 79.0863C98.0435 79.4776 98.6947 80.0523 99.2021 80.8105C99.7096 81.5686 99.9755 82.4674 100 83.5067C100 83.8247 99.9939 84.0998 99.9817 84.3321C99.9694 84.5644 99.9572 84.7112 99.945 84.7723H91.9846C92.1313 85.4815 92.4982 85.9645 93.0851 86.2213C93.6721 86.4781 94.2223 86.6065 94.7359 86.6065C95.3962 86.6065 95.922 86.4873 96.3133 86.2488C96.7046 86.0104 97.0408 85.7383 97.3221 85.4326L99.4497 86.6615C98.3003 88.2267 96.729 89.0093 94.7359 89.0093C93.9533 89.0093 93.1432 88.8442 92.3056 88.5141ZM92.865 81.4616C92.3881 81.8346 92.1191 82.29 92.058 82.8281H97.102C97.0653 82.5101 96.943 82.2045 96.7351 81.911C96.5273 81.6175 96.2491 81.376 95.9006 81.1865C95.5521 80.9969 95.1577 80.9022 94.7175 80.9022C93.9594 80.9022 93.3419 81.0887 92.865 81.4616Z"
      fill="#181818"
    />
    <path
      d="M10.4994 93.3642H11.4269L10.9703 92.2568L10.4994 93.3642ZM11.0759 92.0514L11.9264 94.0719H11.7152L11.4954 93.5354H10.4252L10.1969 94.0719H10L10.8818 92.0514H11.0759ZM14.3162 92C14.5502 92 14.7338 92.0847 14.867 92.254L14.7043 92.371C14.6054 92.2378 14.4741 92.1712 14.3105 92.1712C14.1773 92.1712 14.0693 92.2055 13.9866 92.274C13.9038 92.3425 13.8605 92.4357 13.8567 92.5537C13.8567 92.6564 13.8881 92.7396 13.9509 92.8034C14.0137 92.8671 14.1231 92.9209 14.2791 92.9646C14.4846 93.0255 14.6216 93.0792 14.6901 93.1259C14.7586 93.1725 14.8104 93.23 14.8456 93.2985C14.8808 93.367 14.8984 93.4526 14.8984 93.5554C14.8984 93.719 14.8399 93.8536 14.7229 93.9592C14.6059 94.0648 14.4551 94.1195 14.2705 94.1233C13.9795 94.1233 13.7607 94.0215 13.6142 93.8179L13.7939 93.6981C13.8948 93.8655 14.0489 93.9502 14.2563 93.9521C14.3914 93.9521 14.5008 93.9145 14.5845 93.8393C14.6682 93.7642 14.71 93.6695 14.71 93.5554C14.71 93.4888 14.6982 93.4341 14.6744 93.3913C14.6506 93.3485 14.6144 93.3114 14.5659 93.28C14.5174 93.2486 14.4556 93.22 14.3804 93.1943C14.3053 93.1687 14.2173 93.1387 14.1164 93.1045C13.9642 93.055 13.8515 92.9855 13.7783 92.8961C13.705 92.8067 13.6684 92.6925 13.6684 92.5537C13.6684 92.39 13.7297 92.2568 13.8525 92.1541C13.9752 92.0514 14.1298 92 14.3162 92ZM17.4252 92C17.6592 92 17.8428 92.0847 17.976 92.254L17.8134 92.371C17.7144 92.2378 17.5831 92.1712 17.4195 92.1712C17.2863 92.1712 17.1784 92.2055 17.0956 92.274C17.0128 92.3425 16.9696 92.4357 16.9658 92.5537C16.9658 92.6564 16.9971 92.7396 17.0599 92.8034C17.1227 92.8671 17.2321 92.9209 17.3881 92.9646C17.5936 93.0255 17.7306 93.0792 17.7991 93.1259C17.8676 93.1725 17.9194 93.23 17.9546 93.2985C17.9898 93.367 18.0074 93.4526 18.0074 93.5554C18.0074 93.719 17.9489 93.8536 17.8319 93.9592C17.7149 94.0648 17.5641 94.1195 17.3796 94.1233C17.0885 94.1233 16.8697 94.0215 16.7232 93.8179L16.903 93.6981C17.0038 93.8655 17.1579 93.9502 17.3653 93.9521C17.5004 93.9521 17.6098 93.9145 17.6935 93.8393C17.7772 93.7642 17.8191 93.6695 17.8191 93.5554C17.8191 93.4888 17.8072 93.4341 17.7834 93.3913C17.7596 93.3485 17.7235 93.3114 17.6749 93.28C17.6264 93.2486 17.5646 93.22 17.4894 93.1943C17.4143 93.1687 17.3263 93.1387 17.2255 93.1045C17.0732 93.055 16.9605 92.9855 16.8873 92.8961C16.814 92.8067 16.7774 92.6925 16.7774 92.5537C16.7774 92.39 16.8388 92.2568 16.9615 92.1541C17.0842 92.0514 17.2388 92 17.4252 92ZM20.109 92.0514V93.2643C20.109 93.4831 20.1542 93.6514 20.2446 93.7694C20.3349 93.8874 20.4724 93.9482 20.657 93.9521C21.0185 93.9521 21.2011 93.7133 21.2049 93.2357V92.0514H21.3933V93.2842C21.3933 93.5487 21.3314 93.7542 21.2078 93.9007C21.0841 94.0472 20.9005 94.1214 20.657 94.1233C20.4172 94.1233 20.2351 94.0505 20.1104 93.905C19.9858 93.7594 19.9226 93.5573 19.9207 93.2985V92.0514H20.109ZM24.0342 92.9418C24.1807 92.9418 24.2939 92.909 24.3739 92.8433C24.4538 92.7777 24.4937 92.6906 24.4937 92.5822C24.4937 92.4737 24.4547 92.3872 24.3767 92.3225C24.2987 92.2578 24.1826 92.2245 24.0285 92.2226H23.6204V92.9418H24.0342ZM23.9772 92.0514C24.4433 92.0514 24.6783 92.2283 24.6821 92.5822C24.6821 92.8809 24.5099 93.054 24.1655 93.1016L24.7534 94.0719H24.5394L23.9715 93.113H23.6204V94.0719H23.4321V92.0514H23.9772ZM27.8824 92.0514V92.2226H26.835V92.9418H27.8168V93.113H26.835V93.9007H27.9281V94.0719H26.6467V92.0514H27.8824ZM30.4264 93.9007C30.7156 93.9007 30.9439 93.8274 31.1113 93.6809C31.2787 93.5344 31.3634 93.3328 31.3653 93.0759C31.3653 92.8019 31.2821 92.5917 31.1156 92.4452C30.9491 92.2987 30.7165 92.2245 30.4178 92.2226H30.024V93.9007H30.4264ZM30.4663 92.0514C30.805 92.0514 31.0699 92.1427 31.2611 92.3253C31.4523 92.508 31.5498 92.7582 31.5536 93.0759C31.5536 93.2624 31.5113 93.4312 31.4267 93.5825C31.342 93.7337 31.2202 93.8531 31.0614 93.9406C30.9025 94.0282 30.7079 94.0719 30.4777 94.0719H29.8356V92.0514H30.4663ZM36.339 92C36.5731 92 36.7567 92.0847 36.8898 92.254L36.7272 92.371C36.6282 92.2378 36.497 92.1712 36.3333 92.1712C36.2001 92.1712 36.0922 92.2055 36.0094 92.274C35.9266 92.3425 35.8834 92.4357 35.8796 92.5537C35.8796 92.6564 35.911 92.7396 35.9737 92.8034C36.0365 92.8671 36.1459 92.9209 36.3019 92.9646C36.5074 93.0255 36.6444 93.0792 36.7129 93.1259C36.7814 93.1725 36.8332 93.23 36.8684 93.2985C36.9036 93.367 36.9212 93.4526 36.9212 93.5554C36.9212 93.719 36.8627 93.8536 36.7457 93.9592C36.6287 94.0648 36.4779 94.1195 36.2934 94.1233C36.0023 94.1233 35.7835 94.0215 35.637 93.8179L35.8168 93.6981C35.9176 93.8655 36.0717 93.9502 36.2791 93.9521C36.4142 93.9521 36.5236 93.9145 36.6073 93.8393C36.691 93.7642 36.7329 93.6695 36.7329 93.5554C36.7329 93.4888 36.721 93.4341 36.6972 93.3913C36.6734 93.3485 36.6373 93.3114 36.5888 93.28C36.5402 93.2486 36.4784 93.22 36.4032 93.1943C36.3281 93.1687 36.2401 93.1387 36.1393 93.1045C35.9871 93.055 35.8743 92.9855 35.8011 92.8961C35.7278 92.8067 35.6912 92.6925 35.6912 92.5537C35.6912 92.39 35.7526 92.2568 35.8753 92.1541C35.998 92.0514 36.1526 92 36.339 92ZM40.1986 92.0514V92.2226H39.508V94.0719H39.3196V92.2226H38.629V92.0514H40.1986ZM42.2688 93.3642H43.1963L42.7397 92.2568L42.2688 93.3642ZM42.8453 92.0514L43.6958 94.0719H43.4846L43.2648 93.5354H42.1946L41.9663 94.0719H41.7694L42.6512 92.0514H42.8453ZM45.4406 92.0514L46.0514 93.0103L46.6764 92.0514H46.8876L46.1455 93.2015V94.0719H45.9572V93.2015L45.2152 92.0514H45.4406ZM49.246 92C49.48 92 49.6636 92.0847 49.7968 92.254L49.6341 92.371C49.5352 92.2378 49.4039 92.1712 49.2403 92.1712C49.1071 92.1712 48.9991 92.2055 48.9164 92.274C48.8336 92.3425 48.7903 92.4357 48.7865 92.5537C48.7865 92.6564 48.8179 92.7396 48.8807 92.8034C48.9435 92.8671 49.0529 92.9209 49.2089 92.9646C49.4144 93.0255 49.5514 93.0792 49.6199 93.1259C49.6884 93.1725 49.7402 93.23 49.7754 93.2985C49.8106 93.367 49.8282 93.4526 49.8282 93.5554C49.8282 93.719 49.7697 93.8536 49.6527 93.9592C49.5357 94.0648 49.3849 94.1195 49.2003 94.1233C48.9092 94.1233 48.6904 94.0215 48.5439 93.8179L48.7237 93.6981C48.8246 93.8655 48.9787 93.9502 49.1861 93.9521C49.3212 93.9521 49.4305 93.9145 49.5143 93.8393C49.598 93.7642 49.6398 93.6695 49.6398 93.5554C49.6398 93.4888 49.6279 93.4341 49.6042 93.3913C49.5804 93.3485 49.5442 93.3114 49.4957 93.28C49.4472 93.2486 49.3854 93.22 49.3102 93.1943C49.2351 93.1687 49.1471 93.1387 49.0462 93.1045C48.894 93.055 48.7813 92.9855 48.708 92.8961C48.6348 92.8067 48.5982 92.6925 48.5982 92.5537C48.5982 92.39 48.6595 92.2568 48.7822 92.1541C48.905 92.0514 49.0595 92 49.246 92ZM52.0325 93.8151L51.8128 94.4658H51.6444L51.8328 93.8151H52.0325ZM57.5428 92.0514V92.2226H56.4954V92.9418H57.4772V93.113H56.4954V93.9007H57.5885V94.0719H56.3071V92.0514H57.5428ZM59.4389 92.0514L60.0896 93.8236L60.746 92.0514H60.9458L60.1781 94.0719H59.9897L59.2363 92.0514H59.4389ZM63.972 92.0514V92.2226H62.9246V92.9418H63.9064V93.113H62.9246V93.9007H64.0177V94.0719H62.7363V92.0514H63.972ZM66.5531 92.9418C66.6996 92.9418 66.8128 92.909 66.8927 92.8433C66.9726 92.7777 67.0126 92.6906 67.0126 92.5822C67.0126 92.4737 66.9735 92.3872 66.8955 92.3225C66.8175 92.2578 66.7015 92.2245 66.5474 92.2226H66.1393V92.9418H66.5531ZM66.496 92.0514C66.9621 92.0514 67.1971 92.2283 67.2009 92.5822C67.2009 92.8809 67.0287 93.054 66.6843 93.1016L67.2722 94.0719H67.0582L66.4903 93.113H66.1393V94.0719H65.9509V92.0514H66.496ZM69.097 92.0514L69.7078 93.0103L70.3327 92.0514H70.5439L69.8019 93.2015V94.0719H69.6136V93.2015L68.8716 92.0514H69.097ZM72.2574 92.0514L72.7597 93.8408H72.7654L73.2762 92.0514H73.516L74.0268 93.8408H74.0325L74.5348 92.0514H74.7289L74.141 94.0691L74.1381 94.0719H73.9098L73.399 92.274H73.3933L72.8824 94.0719H72.6512L72.0633 92.0514H72.2574ZM76.7306 92.0514V92.9418H77.8607V92.0514H78.0491V94.0719H77.8607V93.113H76.7306V94.0719H76.5422V92.0514H76.7306ZM81.3607 92.0514V92.2226H80.3133V92.9418H81.2951V93.113H80.3133V93.9007H81.4064V94.0719H80.125V92.0514H81.3607ZM83.9418 92.9418C84.0883 92.9418 84.2015 92.909 84.2814 92.8433C84.3613 92.7777 84.4013 92.6906 84.4013 92.5822C84.4013 92.4737 84.3622 92.3872 84.2842 92.3225C84.2062 92.2578 84.0902 92.2245 83.9361 92.2226H83.528V92.9418H83.9418ZM83.8847 92.0514C84.3508 92.0514 84.5858 92.2283 84.5896 92.5822C84.5896 92.8809 84.4174 93.054 84.0731 93.1016L84.6609 94.0719H84.4469L83.879 93.113H83.528V94.0719H83.3396V92.0514H83.8847ZM87.7899 92.0514V92.2226H86.7426V92.9418H87.7243V93.113H86.7426V93.9007H87.8356V94.0719H86.5542V92.0514H87.7899ZM89.863 93.8151C89.9011 93.8151 89.9334 93.8284 89.96 93.855C89.9867 93.8817 90 93.914 90 93.9521C90 93.9901 89.9867 94.0225 89.96 94.0491C89.9334 94.0757 89.9011 94.089 89.863 94.089C89.825 94.089 89.7926 94.0757 89.766 94.0491C89.7393 94.0225 89.726 93.9901 89.726 93.9521C89.726 93.914 89.7393 93.8817 89.766 93.855C89.7926 93.8284 89.825 93.8151 89.863 93.8151Z"
      fill="#6B8E23"
    />
  </g>
  <defs>
    <clipPath id="clip0_43_552">
      <rect width="100" height="94.4658" fill="white" />
    </clipPath>
  </defs>
</svg>