<svg width="24" height="24" viewBox="0 0 24 24" fill="none" xmlns="http://www.w3.org/2000/svg">
<path d="M20.3205 2H2.79437C1.83672 2 1 2.68906 1 3.63547V21.2005C1 22.152 1.83672 23 2.79437 23H20.3153C21.2781 23 22 22.1464 22 21.2005V3.63547C22.0056 2.68906 21.2781 2 20.3205 2ZM7.50953 19.5045H4.50109V10.1506H7.50953V19.5045ZM6.10938 8.72844H6.08781C5.125 8.72844 4.50156 8.01172 4.50156 7.11453C4.50156 6.20094 5.14141 5.50109 6.12578 5.50109C7.11016 5.50109 7.7125 6.19578 7.73406 7.11453C7.73359 8.01172 7.11016 8.72844 6.10938 8.72844ZM18.5045 19.5045H15.4961V14.39C15.4961 13.1647 15.0583 12.3275 13.9698 12.3275C13.1383 12.3275 12.6461 12.89 12.4272 13.438C12.3452 13.6348 12.3231 13.903 12.3231 14.1767V19.5045H9.31469V10.1506H12.3231V11.4523C12.7609 10.8289 13.4448 9.93172 15.0363 9.93172C17.0111 9.93172 18.505 11.2334 18.505 14.0398L18.5045 19.5045Z" fill="#181818" fill-opacity="0.8"/>
</svg>
